<?xml version="1.0" encoding="UTF-8" standalone="no"?>
<!-- Uploaded to: SVG Repo, www.svgrepo.com, Generator: SVG Repo Mixer Tools -->

<svg
   width="800px"
   height="800px"
   viewBox="0 0 128 128"
   aria-hidden="true"
   role="img"
   class="iconify iconify--noto"
   preserveAspectRatio="xMidYMid meet"
   version="1.1"
   id="svg11"
   sodipodi:docname="favicon.svg"
   inkscape:version="1.4.3 (0d15f75042, 2025-12-25)"
   xmlns:inkscape="http://www.inkscape.org/namespaces/inkscape"
   xmlns:sodipodi="http://sodipodi.sourceforge.net/DTD/sodipodi-0.dtd"
   xmlns="http://www.w3.org/2000/svg"
   xmlns:svg="http://www.w3.org/2000/svg">
  <defs
     id="defs11" />
  <sodipodi:namedview
     id="namedview11"
     pagecolor="#505050"
     bordercolor="#eeeeee"
     borderopacity="1"
     inkscape:showpageshadow="0"
     inkscape:pageopacity="0"
     inkscape:pagecheckerboard="0"
     inkscape:deskcolor="#505050"
     showgrid="true"
     inkscape:zoom="0.99967221"
     inkscape:cx="365.61985"
     inkscape:cy="403.63231"
     inkscape:window-width="2560"
     inkscape:window-height="1334"
     inkscape:window-x="0"
     inkscape:window-y="0"
     inkscape:window-maximized="1"
     inkscape:current-layer="svg11">
    <inkscape:grid
       id="grid11"
       units="px"
       originx="0"
       originy="0"
       spacingx="0.16"
       spacingy="0.16"
       empcolor="#0099e5"
       empopacity="0.30196078"
       color="#0099e5"
       opacity="0.14901961"
       empspacing="5"
       enabled="true"
       visible="true" />
  </sodipodi:namedview>
  <path
     d="M 106.02,121.68 H 36.18 c -1.66,0 -1.26,-1.35 -1.26,-3.01 V 14.05 c 0,-1.66 1.35,-3.01 3.01,-3.01 h 69.36 c 2.72,0 4.93,2.21 4.93,4.93 v 99.76 c 0,3.86 -1.83,5.95 -6.2,5.95 z"
     fill="#d68b52"
     id="path1"
     sodipodi:insensitive="true" />
  <path
     d="m 18.53,115.14 c 0,1.94 3.07,3.57 5.01,3.57 l 80.39,-0.05 c 2.98,0 4.54,-1.58 4.54,-3.52 L 108.22,93.82 H 18.53 Z"
     fill="#94c6d6"
     id="path2"
     sodipodi:insensitive="true" />
  <path
     d="m 101.47,105.88 c 0,0 -2.13,5.85 0.03,8.78 2.51,3.4 6.89,2.58 6.89,0.99 V 16.44 c 0,-0.66 -0.61,-1.14 -1.25,-1 -1.39,0.3 -3.89,0.31 -7.21,-1.89 z"
     fill="#f5f5f5"
     id="path3"
     sodipodi:insensitive="true" />
  <path
     d="M 94.16,110.85 H 23.64 V 6.45 h 72.25 c 2.27,0 3.87,0.61 4.62,1.62 0.98,1.31 1.5,3.3 1.5,5.48 V 103 a 7.85,7.85 0 0 1 -7.85,7.85 z"
     fill="#d68b52"
     id="path4"
     sodipodi:insensitive="true" />
  <path
     d="M 92.01,107.78 H 25.54 c -2.76,0 -4.99,-2.24 -4.99,-4.99 V 11.45 c 0,-2.76 2.24,-4.99 4.99,-4.99 h 66.47 c 3.82,0 6.92,2.18 6.92,6.92 v 87.49 c -0.01,3.81 -3.1,6.91 -6.92,6.91 z"
     fill="#ecb354"
     id="path5"
     sodipodi:insensitive="true" />
  <path
     d="M 34.43,109.75 34.38,6.46 h -11.2 c 0,0 -2.31,-0.4 -3.85,0 -2.79,0.73 -3.56,2.76 -3.56,6.07 v 94.41 c 0,6.7 0.41,9.6 2.44,11.72 -0.12,-1.54 0.87,-6.83 1.68,-8.28 0.72,-1.28 14.54,-0.63 14.54,-0.63 z"
     fill="#ba793e"
     id="path6"
     sodipodi:insensitive="true" />
  <path
     fill="none"
     stroke="#6d4c41"
     stroke-width="2"
     stroke-miterlimit="10"
     d="m 23.18,6.45 v 104.4"
     id="path7"
     sodipodi:insensitive="true" />
  <path
     d="m 34.38,109.34 -11.3,0.22 c -3.77,0 -5.06,4.04 -4.39,6.71 0.84,3.37 4.32,3.92 5.18,3.92 h 12.65"
     fill="none"
     stroke="#6d4c41"
     stroke-width="3"
     stroke-miterlimit="10"
     id="path8"
     sodipodi:insensitive="true" />
  <path
     d="m 85.85,31.7 c 0,-0.86 -0.66,-1.57 -1.52,-1.64 -3.78,-0.3 -7.37,-1.7 -10.55,-3.82 a 12.769,12.769 0 0 0 -7.1,-2.13 c -2.63,0 -5.07,0.79 -7.1,2.13 -3.18,2.11 -6.78,3.51 -10.55,3.81 -0.86,0.07 -1.52,0.78 -1.52,1.64 v 9.96 c 0,0.86 0.66,1.57 1.52,1.64 3.78,0.3 7.37,1.7 10.55,3.81 2.03,1.35 4.47,2.13 7.1,2.13 2.63,0 5.07,-0.79 7.1,-2.13 3.18,-2.11 6.78,-3.51 10.55,-3.82 0.86,-0.07 1.52,-0.78 1.52,-1.64 z"
     fill="#fffde7"
     id="path9"
     sodipodi:insensitive="true"
     style="display:none" />
  <path
     d="m 85.85,40.5 c -0.02,0.07 -0.54,0.72 -3.31,1 -1.16,0.12 -2.28,0.46 -3.39,0.81 -2.29,0.73 -4.47,1.81 -6.47,3.14 -1.77,1.18 -3.85,1.8 -6,1.8 -2.15,0 -4.18,-0.7 -6,-1.8 -5.2,-3.15 -8.06,-3.74 -10.08,-3.98 -2.59,-0.31 -3.11,-1.01 -3.11,-1.01 0,0 0.01,0.76 0.01,1.21 0,0.86 0.66,1.57 1.52,1.64 3.78,0.3 7.37,1.7 10.55,3.81 2.03,1.35 4.47,2.13 7.1,2.13 2.63,0 5.07,-0.79 7.1,-2.13 3.18,-2.11 6.78,-3.51 10.55,-3.82 0.86,-0.07 1.52,-0.78 1.52,-1.64 0.01,-0.33 0.01,-1.16 0.01,-1.16 z"
     fill="#d68b52"
     id="path10"
     sodipodi:insensitive="true"
     style="display:none" />
  <path
     d="m 47.5,32.82 c 0,0 1.08,-0.71 3.31,-0.96 1.15,-0.13 2.28,-0.46 3.39,-0.81 2.29,-0.73 4.47,-1.81 6.47,-3.14 1.77,-1.18 3.85,-1.8 6,-1.8 2.15,0 4.22,0.62 6,1.8 2.05,1.36 5.14,3.36 10.08,3.98 0.46,0.06 2.33,-0.09 3.1,1.24 0,0 -0.01,-0.99 -0.01,-1.43 0,-0.86 -0.66,-1.57 -1.52,-1.64 -3.78,-0.3 -7.37,-1.7 -10.55,-3.81 a 12.769,12.769 0 0 0 -7.1,-2.13 c -2.63,0 -5.07,0.79 -7.1,2.13 -3.18,2.11 -6.78,3.51 -10.55,3.82 -0.86,0.07 -1.52,0.78 -1.52,1.64 z"
     fill="#ffecb3"
     id="path11"
     sodipodi:insensitive="true"
     style="display:none" />
  <g
     id="g6"
     transform="matrix(0.09105185,0,0,0.09105185,43.173854,54.26062)"
     style="display:none">
	<g
   id="g5"
   style="display:none">
		<g
   id="g4">
			<path
   d="m 27.132,269.084 c 0.276,-0.072 -0.3,0 0,0 z"
   id="path1-3" />

			<path
   d="m 27.132,345.936 c -0.428,0 0.384,0.128 0,0 z"
   id="path2-6" />

			<path
   d="m 484.144,352.252 -90.608,-90.048 c -10.484,-10.416 -27.544,-10.416 -38.028,0 l -16.112,16.016 c -5.068,5.036 -7.856,11.756 -7.856,18.924 0,7.172 2.788,12.932 7.856,17.968 l 16.52,15.452 h -52.812 l -86.464,-86.452 86.464,-86.456 h 52.812 l -16.52,17.372 c -5.068,5.032 -7.856,12.228 -7.856,19.396 0,7.176 2.788,14.136 7.856,19.172 l 16.112,16.136 c 5.068,5.032 11.812,7.86 19.02,7.86 7.196,0 13.94,-2.74 19.008,-7.772 l 90.604,-90.032 c 5.084,-5.048 7.876,-11.792 7.86,-18.976 0.016,-7.2 -2.776,-13.944 -7.86,-18.996 L 397.308,15.508 c -5.06,-5.028 -11.816,-7.796 -19.012,-7.796 -7.196,0 -13.952,2.768 -19.012,7.8 l -16.112,16.016 c -5.072,5.036 -7.856,11.76 -7.856,18.932 0,7.164 2.792,12.928 7.856,17.964 l 13.42,12.376 h -69.408 c -10.264,0 -19.912,4.952 -27.168,12.212 l -97.72,98.196 -36.212,-36.94 c -7.248,-7.256 -16.9,-11.984 -27.168,-11.984 H 27.132 C 12.844,142.9 0,152.808 0,167.244 v 22.788 c 0,14.532 12.712,28.628 27.132,29.1 h 55.872 l 24.956,24.976 -24.956,24.976 H 27.132 C 12.7,269.54 0,280.928 0,295.472 v 22.788 c 0,14.42 12.864,27.036 27.132,27.676 h 71.784 c 10.268,0 19.916,-3.056 27.168,-10.312 l 36.212,-35.736 97.724,96.996 c 7.256,7.256 16.904,10.528 27.168,10.528 h 69.4 l -13.416,14.296 c -5.064,5.032 -7.856,12.236 -7.856,19.404 0,7.168 2.784,14.128 7.856,19.168 l 16.112,16.132 c 5.248,5.216 12.128,7.88 19.012,7.88 6.884,0 13.772,-2.58 19.012,-7.784 l 86.836,-86.28 c 5.084,-5.052 7.876,-11.796 7.86,-18.976 0.016,-7.204 -2.776,-13.948 -7.86,-19 z"
   id="path3-7" />

			<path
   d="m 27.132,219.132 c -0.308,0 0.284,0.068 0,0 z"
   id="path4-5" />

		</g>

	</g>

</g>
  <path
     style="fill:#d68b52;fill-opacity:1;stroke-width:0.0800262;stroke-linejoin:round;paint-order:stroke fill markers"
     d="m 77.935835,81.528543 c -0.353048,-0.13859 -0.642701,-0.37155 -1.463757,-1.177248 -1.302328,-1.27796 -1.529971,-1.68071 -1.484642,-2.626643 0.04023,-0.839581 0.212568,-1.163509 1.152015,-2.165379 l 0.76916,-0.820269 -3.187602,-0.0016 c -1.753181,-8e-4 -3.439685,-0.03727 -3.747785,-0.08089 -1.176512,-0.16656 -1.089285,-0.09382 -6.206748,-5.176301 l -4.634371,-4.602696 -1.821814,1.795138 c -1.001999,0.987324 -1.947856,1.869286 -2.101907,1.959913 -0.15405,0.09063 -0.478156,0.232232 -0.720236,0.314675 -0.405899,0.138234 -0.736025,0.149898 -4.243027,0.149898 H 46.442238 L 45.90791,68.834114 c -0.641424,-0.315744 -1.111322,-0.816639 -1.340346,-1.428762 -0.139868,-0.37383 -0.162721,-0.623513 -0.162721,-1.777829 0,-0.964612 0.03404,-1.45754 0.12083,-1.7498 0.160239,-0.53958 0.711533,-1.148105 1.303448,-1.438758 l 0.456338,-0.22408 2.846504,-0.02455 2.846504,-0.02455 1.134801,-1.13683 1.1348,-1.136828 -1.180385,-1.177052 -1.180387,-1.177052 -2.800919,-0.02234 -2.800918,-0.02234 -0.389811,-0.199083 c -0.459231,-0.234535 -1.002791,-0.8119 -1.264344,-1.342972 -0.176871,-0.359131 -0.186448,-0.462836 -0.186448,-2.019113 0,-1.639968 7.5e-5,-1.640666 0.217014,-2.009687 0.26539,-0.45144 0.686037,-0.830566 1.175208,-1.059206 0.361438,-0.168936 0.442818,-0.17217 4.333805,-0.17217 h 3.965448 l 0.602232,0.297639 c 0.543921,0.268822 0.783382,0.479968 2.473125,2.180715 1.028992,1.035691 1.901008,1.883077 1.937814,1.883077 0.03681,0 2.163096,-2.106416 4.725085,-4.680922 4.610165,-4.632686 4.664763,-4.684019 5.298374,-4.981632 l 0.640211,-0.300713 3.549344,-0.04001 3.549346,-0.04001 -0.763398,-0.701966 c -1.003376,-0.922634 -1.209805,-1.315164 -1.157288,-2.200613 0.02206,-0.371995 0.094,-0.730227 0.180457,-0.898667 0.223813,-0.436039 2.102835,-2.302256 2.564136,-2.546663 0.341432,-0.180896 0.49992,-0.212161 1.080354,-0.21312 0.611381,-9.6e-4 0.722197,0.02318 1.094961,0.238957 0.27628,0.15993 1.81332,1.629333 4.604036,4.401443 4.682748,4.651525 4.573438,4.518639 4.574848,5.561823 0.001,1.018214 0.0899,0.911324 -4.749567,5.734064 -4.973974,4.956782 -4.866195,4.869843 -5.964422,4.811195 -0.885471,-0.04729 -1.173832,-0.21765 -2.340322,-1.382659 -1.185616,-1.184114 -1.42163,-1.597431 -1.416376,-2.48041 0.005,-0.833003 0.232325,-1.245989 1.306906,-2.373819 0.489104,-0.513343 0.88928,-0.954487 0.88928,-0.980322 0,-0.02584 -1.089493,-0.04697 -2.421096,-0.04697 h -2.421098 l -3.940989,3.941592 c -2.167542,2.167875 -3.940988,3.977606 -3.940988,4.021625 0,0.04402 1.755712,1.835469 3.901582,3.981005 l 3.901582,3.900971 2.480511,-9.6e-4 2.480509,-9.6e-4 -0.934204,-0.899396 c -1.115371,-1.073815 -1.295683,-1.376682 -1.299452,-2.182669 -0.004,-0.855258 0.216198,-1.231419 1.414091,-2.41568 0.734966,-0.726605 1.104449,-1.030267 1.441117,-1.1844 0.554472,-0.253845 1.205411,-0.281565 1.825108,-0.07772 0.405093,0.133255 0.673663,0.379487 3.995452,3.66314 5.272706,5.212172 5.386336,5.329425 5.600836,5.779401 0.27868,0.584639 0.27145,1.449135 -0.0167,2.000655 -0.15362,0.293993 -1.313836,1.503979 -4.373852,4.561496 -4.615721,4.61195 -4.623948,4.61879 -5.60206,4.65952 -0.393556,0.0164 -0.642984,-0.0224 -0.969941,-0.150726 z"
     id="path12-2" />
  <path
     style="display:none;fill:#ffecb3;fill-opacity:1;stroke-width:0.0800262;stroke-linejoin:round;paint-order:stroke fill markers"
     d="m 77.876736,76.723362 c -0.353048,-0.138596 -0.642701,-0.371555 -1.463757,-1.177251 -1.302328,-1.27796 -1.529971,-1.68071 -1.484642,-2.626643 0.04023,-0.839581 0.212568,-1.163509 1.152015,-2.165379 l 0.76916,-0.820269 -3.187602,-0.0016 c -1.753181,-8e-4 -3.439685,-0.03727 -3.747785,-0.08089 -1.176512,-0.16656 -1.089285,-0.09382 -6.206748,-5.176301 l -4.634371,-4.602696 -1.821814,1.795138 c -1.001999,0.987324 -1.947856,1.869286 -2.101907,1.959913 -0.15405,0.09063 -0.478156,0.232232 -0.720236,0.314675 -0.405899,0.138234 -0.736025,0.149898 -4.243027,0.149898 H 46.383139 L 45.848811,64.02893 c -0.641424,-0.315744 -1.111322,-0.816639 -1.340346,-1.428762 -0.139868,-0.37383 -0.162721,-0.623513 -0.162721,-1.777829 0,-0.964612 0.03404,-1.45754 0.12083,-1.7498 0.160239,-0.53958 0.711533,-1.148105 1.303448,-1.438758 l 0.456338,-0.22408 2.846504,-0.02455 2.846504,-0.02455 1.134801,-1.13683 1.1348,-1.136828 -1.180385,-1.177052 -1.180387,-1.177052 -2.800919,-0.02234 -2.800918,-0.02234 -0.389811,-0.199083 c -0.459231,-0.234535 -1.002791,-0.8119 -1.264344,-1.342972 -0.176871,-0.359131 -0.186448,-0.462836 -0.186448,-2.019113 0,-1.639968 7.5e-5,-1.640666 0.217014,-2.009687 0.26539,-0.45144 0.686037,-0.830566 1.175208,-1.059206 0.361438,-0.168936 0.442818,-0.17217 4.333805,-0.17217 h 3.965448 l 0.602232,0.297639 c 0.543921,0.268822 0.783382,0.479968 2.473125,2.180715 1.028992,1.035691 1.901008,1.883077 1.937814,1.883077 0.03681,0 2.163096,-2.106416 4.725085,-4.680922 4.610165,-4.632686 4.664763,-4.684019 5.298374,-4.981632 l 0.640211,-0.300713 3.549344,-0.04001 3.549346,-0.04001 -0.763398,-0.701966 c -1.003376,-0.922634 -1.209805,-1.315164 -1.157288,-2.200613 0.02206,-0.371995 0.094,-0.730227 0.180457,-0.898667 0.223813,-0.436039 2.102835,-2.302256 2.564136,-2.546663 0.341432,-0.180896 0.49992,-0.212161 1.080354,-0.21312 0.611381,-9.6e-4 0.722197,0.02318 1.094961,0.238957 0.27628,0.15993 1.81332,1.629333 4.604036,4.401443 4.682748,4.651525 4.573438,4.518639 4.574848,5.561823 0.001,1.018214 0.0899,0.911324 -4.749567,5.734064 -4.973974,4.956782 -4.866195,4.869843 -5.964422,4.811195 -0.885471,-0.04729 -1.173832,-0.21765 -2.340322,-1.382659 -1.185616,-1.184114 -1.42163,-1.597431 -1.416376,-2.48041 0.005,-0.833003 0.232325,-1.245989 1.306906,-2.373819 0.489104,-0.513343 0.88928,-0.954487 0.88928,-0.980322 0,-0.02584 -1.089493,-0.04697 -2.421096,-0.04697 h -2.421098 l -3.940989,3.941592 c -2.167542,2.167875 -3.940988,3.977606 -3.940988,4.021625 0,0.04402 1.755712,1.835469 3.901582,3.981005 l 3.901582,3.900971 2.480511,-9.6e-4 2.480509,-9.6e-4 -0.934204,-0.899396 c -1.115371,-1.073815 -1.295683,-1.376682 -1.299452,-2.182669 -0.004,-0.855258 0.216198,-1.231419 1.414091,-2.41568 0.734966,-0.726605 1.104449,-1.030267 1.441117,-1.1844 0.554472,-0.253845 1.205411,-0.281565 1.825108,-0.07772 0.405093,0.133255 0.673663,0.379487 3.995452,3.66314 5.272706,5.212172 5.386336,5.329425 5.600836,5.779401 0.27868,0.584639 0.27145,1.449135 -0.0167,2.000655 -0.15362,0.293993 -1.313836,1.503979 -4.373852,4.561496 -4.615721,4.611952 -4.623948,4.618795 -5.60206,4.659521 -0.393556,0.01639 -0.642984,-0.02237 -0.969941,-0.150726 z"
     id="path12-5" />
  <path
     style="display:inline;fill:#fffde7;fill-opacity:1;stroke-width:0.0813577;stroke-linejoin:round;paint-order:stroke fill markers"
     d="m 78.074893,79.593748 c -0.358922,-0.140903 -0.653394,-0.377737 -1.488112,-1.196839 -1.323997,-1.299223 -1.555428,-1.708676 -1.509344,-2.670347 0.0409,-0.85355 0.216105,-1.182868 1.171183,-2.201409 l 0.781958,-0.833916 -3.24064,-0.0016 c -1.782352,-8.13e-4 -3.496917,-0.03789 -3.810144,-0.08224 -1.196087,-0.169331 -1.107409,-0.09537 -6.31002,-5.262427 l -4.711481,-4.679279 -1.852127,1.825006 c -1.018671,1.003753 -1.980266,1.900389 -2.13688,1.992524 -0.156613,0.09214 -0.486112,0.236096 -0.73222,0.319911 -0.412653,0.140534 -0.748271,0.152392 -4.313626,0.152392 h -3.866158 l -0.543218,-0.267406 c -0.652097,-0.320998 -1.129813,-0.830226 -1.362648,-1.452534 -0.142195,-0.380051 -0.165428,-0.633889 -0.165428,-1.80741 0,-0.980663 0.03461,-1.481793 0.12284,-1.778914 0.162905,-0.548559 0.723372,-1.167209 1.325136,-1.462698 l 0.463931,-0.227808 2.893866,-0.02496 2.893866,-0.02496 1.153683,-1.155746 1.153681,-1.155743 -1.200025,-1.196637 -1.200027,-1.196636 -2.847523,-0.02271 -2.847521,-0.02271 -0.396297,-0.202395 c -0.466872,-0.238436 -1.019477,-0.825408 -1.285381,-1.365316 -0.179814,-0.365107 -0.189551,-0.470538 -0.189551,-2.05271 0,-1.667255 7.7e-5,-1.667964 0.220625,-2.043125 0.269806,-0.458951 0.697452,-0.844385 1.194762,-1.076829 0.367452,-0.171753 0.450186,-0.175041 4.405914,-0.175041 h 4.031428 l 0.612253,0.30259 c 0.552971,0.273296 0.796416,0.487954 2.514274,2.217 1.046114,1.052924 1.932639,1.914409 1.970057,1.914409 0.03742,0 2.199087,-2.141465 4.803705,-4.758806 4.686872,-4.709769 4.742379,-4.761955 5.386532,-5.06452 l 0.650863,-0.305718 3.608401,-0.04068 3.608403,-0.04068 -0.7761,-0.713647 c -1.020071,-0.937985 -1.229935,-1.337046 -1.176544,-2.237229 0.02243,-0.378184 0.09556,-0.742377 0.183459,-0.913619 0.227537,-0.443293 2.137824,-2.340563 2.6068,-2.589036 0.347113,-0.183905 0.508239,-0.215692 1.09833,-0.216666 0.621554,-9.76e-4 0.734214,0.02356 1.11318,0.242933 0.280877,0.16259 1.843491,1.656442 4.680641,4.474678 4.760662,4.72892 4.649538,4.593822 4.650964,5.654364 0.0014,1.035156 0.09141,0.926488 -4.82859,5.829471 -5.056734,5.039258 -4.947162,4.950871 -6.063662,4.891248 -0.900204,-0.04808 -1.193363,-0.221271 -2.379262,-1.405665 -1.205343,-1.203815 -1.445284,-1.624009 -1.439943,-2.52168 0.0051,-0.846864 0.236191,-1.266721 1.328651,-2.413317 0.497242,-0.521884 0.904077,-0.970368 0.904077,-0.996633 0,-0.02627 -1.107621,-0.04775 -2.46138,-0.04775 h -2.461382 l -4.006562,4.007175 c -2.203608,2.203947 -4.006561,4.043789 -4.006561,4.088541 0,0.04475 1.784924,1.866009 3.966499,4.047244 l 3.966499,3.965878 2.521784,-9.76e-4 2.521782,-9.76e-4 -0.949748,-0.914362 c -1.13393,-1.091681 -1.317242,-1.399587 -1.321074,-2.218986 -0.0041,-0.869487 0.219796,-1.251908 1.43762,-2.455874 0.747195,-0.738693 1.122826,-1.047409 1.465095,-1.204107 0.563698,-0.258067 1.225468,-0.286248 1.855476,-0.07901 0.411833,0.135471 0.684872,0.3858 4.061931,3.724089 5.360439,5.298897 5.475961,5.418101 5.694023,5.875564 0.283321,0.594366 0.275969,1.473246 -0.01702,2.033943 -0.156177,0.298885 -1.335695,1.529003 -4.446626,4.637393 -4.692521,4.688689 -4.700885,4.695646 -5.695271,4.737051 -0.400104,0.01666 -0.653683,-0.02274 -0.98608,-0.153235 z"
     id="path12" />
</svg>
